<svg width="1200" height="520" viewBox="0 0 1200 520" fill="none" xmlns="http://www.w3.org/2000/svg" role="img" aria-labelledby="title desc">
  <title id="title">Private Council banner</title>
  <desc id="desc">A quiet decision room with a council table and a structured decision canvas.</desc>
  <rect width="1200" height="520" fill="#F6F4EE"/>
  <rect x="56" y="56" width="1088" height="408" rx="18" fill="#FFFDF8" stroke="#D8D1C5"/>
  <path d="M56 174H1144" stroke="#E5DED3"/>
  <path d="M360 56V464" stroke="#E5DED3"/>
  <circle cx="208" cy="258" r="86" fill="#EEE9DD" stroke="#D0C7B8"/>
  <ellipse cx="208" cy="258" rx="116" ry="42" fill="#24211D"/>
  <circle cx="113" cy="250" r="22" fill="#356CA3"/>
  <circle cx="303" cy="250" r="22" fill="#A84C3D"/>
  <circle cx="156" cy="194" r="22" fill="#3F7A55"/>
  <circle cx="260" cy="194" r="22" fill="#6C5B9D"/>
  <circle cx="156" cy="322" r="22" fill="#9B6B25"/>
  <circle cx="260" cy="322" r="22" fill="#337C7C"/>
  <rect x="406" y="104" width="324" height="52" rx="10" fill="#24211D"/>
  <rect x="430" y="123" width="188" height="14" rx="7" fill="#FFFDF8"/>
  <rect x="406" y="190" width="324" height="50" rx="10" fill="#F1EEE6" stroke="#D8D1C5"/>
  <rect x="426" y="209" width="238" height="12" rx="6" fill="#7A746A"/>
  <rect x="406" y="258" width="324" height="50" rx="10" fill="#F1EEE6" stroke="#D8D1C5"/>
  <rect x="426" y="277" width="190" height="12" rx="6" fill="#7A746A"/>
  <rect x="406" y="326" width="324" height="50" rx="10" fill="#F1EEE6" stroke="#D8D1C5"/>
  <rect x="426" y="345" width="262" height="12" rx="6" fill="#7A746A"/>
  <rect x="780" y="104" width="304" height="272" rx="14" fill="#FAF8F2" stroke="#D8D1C5"/>
  <rect x="808" y="134" width="118" height="14" rx="7" fill="#24211D"/>
  <rect x="808" y="174" width="224" height="10" rx="5" fill="#9F978B"/>
  <rect x="808" y="202" width="196" height="10" rx="5" fill="#9F978B"/>
  <rect x="808" y="240" width="236" height="34" rx="8" fill="#E8EFE9" stroke="#B8D0BF"/>
  <rect x="808" y="292" width="236" height="34" rx="8" fill="#F6ECE8" stroke="#D8B5AB"/>
  <rect x="808" y="344" width="172" height="10" rx="5" fill="#9F978B"/>
  <text x="96" y="112" fill="#24211D" font-family="Inter, Arial, sans-serif" font-size="38" font-weight="800">Private Council</text>
  <text x="96" y="145" fill="#6F695F" font-family="Inter, Arial, sans-serif" font-size="18">Structured deliberation for traceable decisions</text>
  <text x="406" y="430" fill="#6F695F" font-family="Inter, Arial, sans-serif" font-size="18">Roles preserve disagreement. Canvas preserves judgment.</text>
</svg>
