<svg width="1200" height="520" viewBox="0 0 1200 520" fill="none" xmlns="http://www.w3.org/2000/svg" role="img" aria-labelledby="title desc">
  <title id="title">Private Council</title>
  <desc id="desc">A refined banner showing an AI council table, structured decision canvas, and traceable judgment path.</desc>

  <defs>
    <linearGradient id="paper" x1="0" y1="0" x2="1200" y2="520" gradientUnits="userSpaceOnUse">
      <stop stop-color="#F7F3EA"/>
      <stop offset="1" stop-color="#ECE6DA"/>
    </linearGradient>
    <linearGradient id="ink" x1="160" y1="86" x2="1040" y2="438" gradientUnits="userSpaceOnUse">
      <stop stop-color="#2B2925"/>
      <stop offset="1" stop-color="#11100F"/>
    </linearGradient>
    <filter id="shadow" x="50" y="42" width="1100" height="440" filterUnits="userSpaceOnUse" color-interpolation-filters="sRGB">
      <feDropShadow dx="0" dy="24" stdDeviation="28" flood-color="#3D3528" flood-opacity="0.16"/>
    </filter>
  </defs>

  <rect width="1200" height="520" fill="url(#paper)"/>

  <g filter="url(#shadow)">
    <rect x="84" y="72" width="1032" height="376" rx="28" fill="#FFFDF7"/>
  </g>

  <rect x="84.5" y="72.5" width="1031" height="375" rx="27.5" stroke="#D7CFC1"/>

  <g opacity="0.55">
    <path d="M144 168H1056" stroke="#E6DED2"/>
    <path d="M144 352H1056" stroke="#E6DED2"/>
    <path d="M414 108V412" stroke="#E6DED2"/>
    <path d="M784 108V412" stroke="#E6DED2"/>
  </g>

  <text x="144" y="140" fill="#24211D" font-family="Inter, ui-sans-serif, system-ui, -apple-system, BlinkMacSystemFont, Segoe UI, sans-serif" font-size="46" font-weight="800" letter-spacing="0">
    Private Council
  </text>
  <text x="144" y="182" fill="#746D62" font-family="Inter, ui-sans-serif, system-ui, -apple-system, BlinkMacSystemFont, Segoe UI, sans-serif" font-size="20" font-weight="500" letter-spacing="0">
    Structured deliberation for decisions that deserve a trace.
  </text>

  <g transform="translate(150 232)">
    <ellipse cx="134" cy="74" rx="118" ry="42" fill="url(#ink)"/>
    <ellipse cx="134" cy="74" rx="74" ry="23" fill="#34312C"/>
    <circle cx="134" cy="74" r="10" fill="#F4EFE5"/>

    <circle cx="31" cy="62" r="18" fill="#315F91"/>
    <circle cx="237" cy="62" r="18" fill="#93483D"/>
    <circle cx="70" cy="13" r="18" fill="#3E7652"/>
    <circle cx="198" cy="13" r="18" fill="#66569A"/>
    <circle cx="70" cy="135" r="18" fill="#94703B"/>
    <circle cx="198" cy="135" r="18" fill="#2F7874"/>

    <path d="M48 94C63 121 94 140 134 140C174 140 205 121 220 94" stroke="#CFC5B6" stroke-width="2"/>
    <path d="M48 54C63 27 94 8 134 8C174 8 205 27 220 54" stroke="#CFC5B6" stroke-width="2"/>
  </g>

  <g transform="translate(462 218)">
    <rect width="260" height="38" rx="10" fill="#24211D"/>
    <rect x="20" y="14" width="122" height="10" rx="5" fill="#FFFDF7"/>
    <rect y="58" width="260" height="38" rx="10" fill="#F4F0E8" stroke="#D8CFC0"/>
    <rect x="20" y="72" width="190" height="10" rx="5" fill="#7B746A"/>
    <rect y="116" width="260" height="38" rx="10" fill="#F4F0E8" stroke="#D8CFC0"/>
    <rect x="20" y="130" width="158" height="10" rx="5" fill="#7B746A"/>
    <path d="M286 18H338" stroke="#A79B8B" stroke-width="2"/>
    <path d="M330 10L338 18L330 26" stroke="#A79B8B" stroke-width="2" stroke-linecap="round" stroke-linejoin="round"/>
  </g>

  <g transform="translate(834 170)">
    <rect width="220" height="206" rx="18" fill="#FAF7EF" stroke="#D8CFC0"/>
    <text x="24" y="42" fill="#24211D" font-family="Inter, ui-sans-serif, system-ui, -apple-system, BlinkMacSystemFont, Segoe UI, sans-serif" font-size="18" font-weight="800">Decision Canvas</text>
    <rect x="24" y="66" width="164" height="9" rx="4.5" fill="#8B8377"/>
    <rect x="24" y="92" width="126" height="9" rx="4.5" fill="#B2A99D"/>
    <rect x="24" y="122" width="172" height="32" rx="9" fill="#EAF0EA" stroke="#B7CEBD"/>
    <rect x="24" y="166" width="172" height="32" rx="9" fill="#F6ECE8" stroke="#D9B9AF"/>
  </g>

  <text x="144" y="404" fill="#81786C" font-family="Inter, ui-sans-serif, system-ui, -apple-system, BlinkMacSystemFont, Segoe UI, sans-serif" font-size="16" font-weight="600">
    Council advises. Human decides. Every decision becomes learning material.
  </text>
</svg>
